<?xml version="1.0" standalone="no"?>
<!DOCTYPE svg PUBLIC "-//W3C//DTD SVG 20010904//EN"
 "http://www.w3.org/TR/2001/REC-SVG-20010904/DTD/svg10.dtd">
<svg version="1.0" xmlns="http://www.w3.org/2000/svg"
 width="697.000000pt" height="697.000000pt" viewBox="0 0 697.000000 697.000000"
 preserveAspectRatio="xMidYMid meet">
<metadata>
Created by potrace 1.14, written by Peter Selinger 2001-2017
</metadata>
<g transform="translate(0.000000,697.000000) scale(0.100000,-0.100000)"
fill="#000000" stroke="none">
<path d="M0 3485 l0 -3485 3485 0 3485 0 0 3485 0 3485 -3485 0 -3485 0 0
-3485z m6497 2787 l1 -227 -1387 0 -1386 0 -3 -237 c-2 -187 0 -238 10 -239 7
0 633 -1 1391 -1 983 -1 1377 -4 1378 -12 1 -6 2 -530 3 -1163 l1 -1153 -30 0
c-51 -1 -389 -1 -407 -1 -17 1 -18 52 -18 936 0 514 -3 935 -7 936 -11 1
-2295 1 -2310 0 -10 -1 -13 -195 -13 -936 l0 -935 -57 -1 c-203 -2 -383 0
-390 4 -4 3 -8 424 -8 936 0 512 -2 931 -5 932 -36 4 -2312 0 -2317 -4 -3 -4
-6 -425 -6 -937 l0 -930 -41 -1 c-57 -1 -334 -1 -377 0 l-36 1 1 1163 1 1162
1381 1 c759 0 1385 3 1390 7 7 4 12 438 5 467 0 3 -625 5 -1388 5 l-1388 0 -1
228 -1 227 3007 0 3007 0 0 -228z m-3716 -1662 c0 -14 2 -116 2 -227 l2 -203
-687 0 -688 0 0 224 c0 142 4 226 10 228 6 2 314 3 685 3 l675 0 1 -25z m2780
5 c0 -11 1 -113 2 -228 l2 -207 -687 0 -688 0 0 224 c0 142 4 226 10 228 6 2
314 3 685 3 668 0 675 0 676 -20z m-2780 -932 c3 -125 1 -421 -3 -429 -4 -5
-269 -9 -685 -9 l-678 0 -3 228 -2 227 685 0 c646 0 685 -1 686 -17z m2780 -5
c6 -148 2 -428 -6 -431 -5 -2 -314 -3 -685 -3 l-675 1 -3 228 -2 227 685 0
685 0 1 -22z m920 -927 c15 -1 16 -99 16 -1145 l0 -1144 -3006 1 -3006 2 -1
226 -1 226 2773 1 c1525 0 2776 2 2781 5 6 4 9 360 4 445 -1 9 -563 12 -2776
12 -2636 0 -2775 1 -2776 18 0 30 -1 376 0 407 l1 30 2768 -1 c1522 0 2772 3
2777 7 8 6 12 348 6 447 -1 9 -564 12 -2779 12 l-2778 0 -1 223 c0 122 3 224
7 227 7 4 5939 5 5991 1z"/>
</g>
</svg>
